<?xml version="1.0" standalone="no"?>
<!DOCTYPE svg PUBLIC "-//W3C//DTD SVG 20010904//EN"
 "http://www.w3.org/TR/2001/REC-SVG-20010904/DTD/svg10.dtd">
<svg version="1.0" xmlns="http://www.w3.org/2000/svg"
 width="512.000000pt" height="512.000000pt" viewBox="0 0 512.000000 512.000000"
 preserveAspectRatio="xMidYMid meet">

<g transform="translate(0.000000,512.000000) scale(0.100000,-0.100000)"
fill="#000000" stroke="none">
<path d="M415 5110 c-183 -38 -330 -170 -391 -350 -18 -53 -19 -134 -19 -2200
0 -2066 1 -2147 19 -2200 52 -154 168 -274 322 -332 l59 -23 2155 0 2155 0 59
23 c154 58 270 178 322 332 18 53 19 134 19 2200 0 2066 -1 2147 -19 2200 -52
154 -168 274 -322 332 l-59 23 -2130 1 c-1172 1 -2148 -2 -2170 -6z m1298
-929 c187 -49 338 -181 432 -376 111 -232 209 -663 261 -1147 l17 -168 27 0
c25 0 29 8 81 147 61 166 197 451 284 593 260 429 506 674 829 830 285 137
673 188 825 110 89 -46 144 -144 160 -283 15 -126 -7 -281 -124 -902 -173
-915 -205 -1114 -205 -1279 0 -213 38 -424 99 -544 l31 -62 -72 -47 c-150 -97
-313 -147 -483 -147 -278 0 -425 110 -497 369 -19 70 -22 105 -22 285 -1 210
5 271 60 640 19 130 91 564 131 798 l6 33 -39 -3 c-36 -3 -41 -8 -113 -115
-42 -61 -103 -160 -135 -219 -183 -329 -360 -844 -417 -1214 -11 -74 -23 -144
-25 -155 -12 -56 -223 -173 -363 -201 -185 -36 -296 2 -388 134 -148 211 -231
535 -298 1157 -13 127 -29 307 -35 400 -15 223 -13 215 -54 215 l-33 0 -27
-122 c-215 -964 -239 -1423 -91 -1736 l34 -73 -71 -46 c-150 -97 -313 -147
-483 -147 -345 0 -505 179 -522 584 -3 78 -1 186 6 255 26 261 114 826 216
1397 25 136 45 257 45 268 0 11 -52 124 -115 250 l-115 230 38 23 c253 160
491 254 737 291 17 2 98 3 180 1 112 -2 170 -8 228 -24z"/>
</g>
</svg>
