<?xml version="1.0" standalone="no"?>
<!DOCTYPE svg PUBLIC "-//W3C//DTD SVG 20010904//EN"
 "http://www.w3.org/TR/2001/REC-SVG-20010904/DTD/svg10.dtd">
<svg version="1.0" xmlns="http://www.w3.org/2000/svg"
 width="192.000000pt" height="192.000000pt" viewBox="0 0 192.000000 192.000000"
 preserveAspectRatio="xMidYMid meet">

<g transform="translate(0.000000,192.000000) scale(0.100000,-0.100000)"
fill="#000000" stroke="none">
<path d="M115 1901 c-48 -22 -79 -54 -100 -103 -13 -33 -15 -138 -15 -840 0
-759 1 -805 19 -843 22 -48 54 -79 103 -100 33 -13 138 -15 840 -15 759 0 805
1 843 19 48 22 79 54 100 103 13 33 15 138 15 838 0 700 -2 805 -15 838 -21
49 -52 81 -100 103 -38 18 -83 19 -845 19 -762 0 -807 -1 -845 -19z m572 -349
c109 -56 166 -190 207 -492 9 -63 16 -118 16 -122 0 -23 20 -3 31 30 24 74 89
203 144 289 129 197 279 297 480 319 70 7 124 -10 149 -48 37 -56 30 -124 -57
-583 -45 -236 -52 -306 -39 -391 7 -43 19 -91 27 -108 15 -29 14 -31 -7 -48
-40 -31 -126 -58 -185 -58 -101 0 -165 49 -187 144 -18 75 -7 214 40 494 14
85 23 157 19 160 -12 12 -64 -60 -115 -160 -59 -115 -112 -267 -137 -398 l-19
-95 -48 -29 c-36 -23 -63 -31 -110 -34 -55 -4 -65 -1 -92 22 -77 64 -128 277
-156 655 -5 57 -24 47 -41 -21 -62 -250 -81 -513 -44 -608 10 -25 19 -49 20
-54 5 -20 -111 -68 -177 -73 -174 -14 -243 92 -216 332 9 88 63 421 89 560 9
47 7 53 -35 137 l-44 88 23 14 c40 27 151 75 207 91 76 21 202 14 257 -13z"/>
</g>
</svg>
